<?xml version="1.0" encoding="UTF-8"?><svg width="32" height="32" viewBox="0 0 32 32" fill="none" xmlns="http://www.w3.org/2000/svg"><svg width="32" height="32" viewBox="0 0 32 32" fill="none" xmlns="http://www.w3.org/2000/svg">

<svg width="256" height="256" viewBox="0 0 256 256" fill="none" xmlns="http://www.w3.org/2000/svg" role="img" aria-labelledby="title desc">

  <title id="title">Outbound O — Bolt Cut</title>  <circle cx="16" cy="16" r="14" stroke="currentColor" stroke-width="3" fill="none"/>  <circle cx="16" cy="16" r="14" stroke="currentColor" stroke-width="3" fill="none"/>

  <desc id="desc">Energetic O with a lightning cut suggesting speed and outbound energy.</desc>

  <defs>  <path d="M16 8C11.5817 8 8 11.5817 8 16C8 20.4183 11.5817 24 16 24C20.4183 24 24 20.4183 24 16C24 11.5817 20.4183 8 16 8ZM16 21C13.2386 21 11 18.7614 11 16C11 13.2386 13.2386 11 16 11C18.7614 11 21 13.2386 21 16C21 18.7614 18.7614 21 16 21Z" fill="currentColor"/>  <path d="M16 8C11.5817 8 8 11.5817 8 16C8 20.4183 11.5817 24 16 24C20.4183 24 24 20.4183 24 16C24 11.5817 20.4183 8 16 8ZM16 21C13.2386 21 11 18.7614 11 16C11 13.2386 13.2386 11 16 11C18.7614 11 21 13.2386 21 16C21 18.7614 18.7614 21 16 21Z" fill="currentColor"/>

    <linearGradient id="g5" x1="24" y1="232" x2="232" y2="24" gradientUnits="userSpaceOnUse">

      <stop offset="0" stop-color="#0EA5E9"/></svg></svg>

      <stop offset="1" stop-color="#8B5CF6"/>

    </linearGradient>
    <mask id="boltMask">
      <rect width="256" height="256" fill="white"/>
      <!-- lightning zigzag to cut -->
      <path d="M160 36 L120 116 L172 116 L96 220" stroke="black" stroke-width="36" stroke-linecap="round" stroke-linejoin="round"/>
    </mask>
  </defs>
  <circle cx="128" cy="128" r="84" stroke="url(#g5)" stroke-width="32" fill="none" mask="url(#boltMask)"/>
</svg>
